<?xml version="1.0" standalone="no"?>
<!DOCTYPE svg PUBLIC "-//W3C//DTD SVG 20010904//EN"
 "http://www.w3.org/TR/2001/REC-SVG-20010904/DTD/svg10.dtd">
<svg version="1.0" xmlns="http://www.w3.org/2000/svg"
 width="260.000000pt" height="260.000000pt" viewBox="0 0 260.000000 260.000000"
 preserveAspectRatio="xMidYMid meet">
<metadata>
Created by potrace 1.11, written by Peter Selinger 2001-2013
</metadata>
<g transform="translate(0.000000,260.000000) scale(0.100000,-0.100000)"
fill="#000000" stroke="none">
<path d="M0 1300 l0 -1300 1300 0 1300 0 0 713 0 712 -33 36 c-70 80 -122 137
-181 200 -33 36 -95 103 -136 150 -41 46 -102 113 -135 149 -34 36 -119 130
-190 210 -71 80 -153 170 -181 200 -28 30 -73 80 -100 110 -26 30 -63 70 -81
88 l-33 32 -765 0 -765 0 0 -1300z m1055 216 c95 -29 92 -22 59 -184 l-29
-142 -35 34 c-62 60 -115 81 -205 81 -96 0 -157 -27 -222 -98 -136 -148 -219
-538 -145 -683 70 -137 246 -150 420 -33 24 16 46 28 49 25 2 -2 -8 -65 -24
-140 l-28 -136 -52 -20 c-80 -30 -178 -43 -273 -37 -197 13 -319 100 -371 267
-26 83 -29 248 -5 375 74 398 264 642 544 700 83 18 248 13 317 -9z m1000 -10
c125 -40 121 -34 96 -152 -12 -54 -23 -109 -26 -121 -5 -23 -6 -23 -58 12
-157 104 -363 112 -450 16 -64 -71 -57 -155 15 -199 18 -11 83 -41 145 -66
170 -69 231 -115 272 -206 38 -84 23 -237 -35 -357 -84 -174 -280 -265 -539
-249 -156 9 -328 64 -320 103 3 10 14 68 26 128 11 61 23 112 24 114 2 2 35
-17 72 -42 106 -70 171 -90 284 -91 89 -1 99 1 144 29 119 74 129 237 18 293
-21 11 -76 35 -123 55 -257 106 -321 198 -276 400 39 175 170 306 354 352 91
23 276 14 377 -19z"/>
</g>
</svg>
